<?xml version="1.0" encoding="UTF-8" standalone="no"?>
<!-- Created with Inkscape (http://www.inkscape.org/) -->

<svg
   width="1920"
   height="1080"
   viewBox="0 0 508 285.75"
   version="1.1"
   id="svg1"
   inkscape:version="1.3 (0e150ed6c4, 2023-07-21)"
   sodipodi:docname="jtbd.svg"
   xml:space="preserve"
   xmlns:inkscape="http://www.inkscape.org/namespaces/inkscape"
   xmlns:sodipodi="http://sodipodi.sourceforge.net/DTD/sodipodi-0.dtd"
   xmlns="http://www.w3.org/2000/svg"
   xmlns:svg="http://www.w3.org/2000/svg"><sodipodi:namedview
     id="namedview1"
     pagecolor="#ffffff"
     bordercolor="#000000"
     borderopacity="0.25"
     inkscape:showpageshadow="2"
     inkscape:pageopacity="0.0"
     inkscape:pagecheckerboard="0"
     inkscape:deskcolor="#d1d1d1"
     inkscape:document-units="px"
     inkscape:zoom="0.51213162"
     inkscape:cx="1382.4571"
     inkscape:cy="712.70741"
     inkscape:window-width="1920"
     inkscape:window-height="1112"
     inkscape:window-x="-8"
     inkscape:window-y="-8"
     inkscape:window-maximized="1"
     inkscape:current-layer="layer1"><sodipodi:guide
       position="0,285.75"
       orientation="0,1920"
       id="guide1"
       inkscape:locked="false" /><sodipodi:guide
       position="508,285.75"
       orientation="1080,0"
       id="guide2"
       inkscape:locked="false" /><sodipodi:guide
       position="508,0"
       orientation="0,-1920"
       id="guide3"
       inkscape:locked="false" /><sodipodi:guide
       position="0.73062731,352.23708"
       orientation="-1080,0"
       id="guide4"
       inkscape:locked="false" /></sodipodi:namedview><defs
     id="defs1"><rect
       x="323.07031"
       y="760.61129"
       width="225.51806"
       height="263.87777"
       id="rect10" /></defs><g
     inkscape:label="Layer 1"
     inkscape:groupmode="layer"
     id="layer1"><rect
       style="fill:#305775;fill-opacity:1;stroke:#a2b8cb;stroke-width:0.989774;stroke-dasharray:none;stroke-opacity:1"
       id="rect5"
       width="104.84356"
       height="38.697731"
       x="347.73352"
       y="157.28687" /><path
       d="m 383.1982,175.5757 q 0,1.25883 -0.5519,2.28203 -0.54571,1.02319 -1.45728,1.5875 -0.63252,0.39067 -1.41387,0.5643 -0.77514,0.17364 -2.04638,0.17364 h -2.33164 v -9.23355 h 2.30683 q 1.35186,0 2.14561,0.19844 0.79995,0.19224 1.35185,0.5333 0.94258,0.58911 1.46968,1.5689 0.5271,0.97978 0.5271,2.32544 z m -1.28364,-0.0186 q 0,-1.0852 -0.37827,-1.82934 -0.37828,-0.74414 -1.12862,-1.17203 -0.5457,-0.31005 -1.15962,-0.42788 -0.61391,-0.12402 -1.46967,-0.12402 h -1.15342 v 7.12515 h 1.15342 q 0.88676,0 1.54409,-0.13023 0.66352,-0.13022 1.21543,-0.48369 0.68833,-0.44028 1.02939,-1.15962 0.34727,-0.71933 0.34727,-1.79834 z m 8.97309,1.28364 h -5.10356 q 0,0.63873 0.19223,1.11622 0.19224,0.47128 0.5271,0.77514 0.32246,0.29766 0.76275,0.44649 0.44648,0.14882 0.97978,0.14882 0.70694,0 1.42007,-0.27905 0.71934,-0.28525 1.02319,-0.5581 h 0.062 v 1.27124 q -0.58911,0.24804 -1.20303,0.41548 -0.61392,0.16743 -1.28984,0.16743 -1.72393,0 -2.69131,-0.93018 -0.96739,-0.93638 -0.96739,-2.6541 0,-1.69912 0.92398,-2.69751 0.93017,-0.99839 2.44326,-0.99839 1.40147,0 2.15801,0.81856 0.76274,0.81855 0.76274,2.32544 z m -1.13481,-0.89296 q -0.006,-0.91778 -0.46509,-1.42007 -0.45269,-0.5023 -1.38286,-0.5023 -0.93638,0 -1.49448,0.55191 -0.55191,0.5519 -0.62632,1.37046 z m 8.89248,-2.69131 -2.80293,6.92671 h -1.17202 l -2.78433,-6.92671 h 1.26504 l 2.14561,5.51284 2.127,-5.51284 z m 7.21196,3.58427 h -5.10356 q 0,0.63873 0.19223,1.11622 0.19224,0.47128 0.5271,0.77514 0.32246,0.29766 0.76275,0.44649 0.44648,0.14882 0.97978,0.14882 0.70694,0 1.42007,-0.27905 0.71934,-0.28525 1.02319,-0.5581 h 0.062 v 1.27124 q -0.58911,0.24804 -1.20302,0.41548 -0.61392,0.16743 -1.28985,0.16743 -1.72392,0 -2.6913,-0.93018 -0.96739,-0.93638 -0.96739,-2.6541 0,-1.69912 0.92398,-2.69751 0.93017,-0.99839 2.44326,-0.99839 1.40146,0 2.15801,0.81856 0.76274,0.81855 0.76274,2.32544 z m -1.13481,-0.89296 q -0.006,-0.91778 -0.46509,-1.42007 -0.45269,-0.5023 -1.38286,-0.5023 -0.93638,0 -1.49449,0.55191 -0.5519,0.5519 -0.62631,1.37046 z m 4.08037,4.2354 h -1.16582 v -9.64903 h 1.16582 z m 8.21035,-3.46026 q 0,1.69292 -0.86817,2.67271 -0.86816,0.97978 -2.32544,0.97978 -1.46967,0 -2.33784,-0.97978 -0.86196,-0.97979 -0.86196,-2.67271 0,-1.69292 0.86196,-2.6727 0.86817,-0.98599 2.33784,-0.98599 1.45728,0 2.32544,0.98599 0.86817,0.97978 0.86817,2.6727 z m -1.20303,0 q 0,-1.34565 -0.5271,-1.99677 -0.5271,-0.65733 -1.46348,-0.65733 -0.94877,0 -1.47587,0.65733 -0.5209,0.65112 -0.5209,1.99677 0,1.30225 0.5271,1.97818 0.5271,0.66972 1.46967,0.66972 0.93018,0 1.45728,-0.66352 0.5333,-0.66973 0.5333,-1.98438 z m 9.10332,-0.0868 q 0,0.84336 -0.24184,1.54409 -0.24185,0.69453 -0.68213,1.17822 -0.40928,0.45889 -0.96739,0.71314 -0.5519,0.24804 -1.17202,0.24804 -0.5395,0 -0.97978,-0.11782 -0.43408,-0.11782 -0.88677,-0.36587 v 2.90215 h -1.16582 v -9.48159 h 1.16582 v 0.72553 q 0.46509,-0.39067 1.0418,-0.65112 0.58291,-0.26665 1.24023,-0.26665 1.25264,0 1.94717,0.94878 0.70073,0.94258 0.70073,2.6231 z m -1.20303,0.031 q 0,-1.25263 -0.42788,-1.87275 -0.42788,-0.62012 -1.31464,-0.62012 -0.5023,0 -1.0108,0.21704 -0.50849,0.21704 -0.97358,0.57051 v 3.92534 q 0.49609,0.22324 0.84956,0.30386 0.35967,0.0806 0.81235,0.0806 0.97359,0 1.51929,-0.65732 0.5457,-0.65732 0.5457,-1.94717 z"
       id="text5"
       style="fill:#ffffff;stroke-width:0.79375"
       aria-label="Develop" /><rect
       style="fill:#305775;fill-opacity:1;stroke:#a2b8cb;stroke-width:0.989774;stroke-dasharray:none;stroke-opacity:1"
       id="rect4-8"
       width="104.84356"
       height="38.697731"
       x="347.73352"
       y="90.904503" /><path
       d="m 386.82588,110.37433 q 0,1.25884 -0.5519,2.28204 -0.5457,1.0232 -1.45727,1.58751 -0.63252,0.39068 -1.41387,0.56431 -0.77515,0.17364 -2.04639,0.17364 h -2.33164 v -9.2336 h 2.30684 q 1.35185,0 2.1456,0.19844 0.79995,0.19224 1.35186,0.5333 0.94258,0.58912 1.46968,1.56891 0.52709,0.97979 0.52709,2.32545 z m -1.28364,-0.0186 q 0,-1.08521 -0.37827,-1.82935 -0.37827,-0.74415 -1.12861,-1.17203 -0.54571,-0.31006 -1.15962,-0.42789 -0.61392,-0.12402 -1.46968,-0.12402 h -1.15342 v 7.12518 h 1.15342 q 0.88677,0 1.54409,-0.13022 0.66353,-0.13023 1.21543,-0.4837 0.68833,-0.44028 1.0294,-1.15962 0.34726,-0.71934 0.34726,-1.79835 z m 8.9731,1.28365 h -5.10357 q 0,0.63873 0.19224,1.11622 0.19224,0.47129 0.5271,0.77515 0.32246,0.29766 0.76274,0.44649 0.44649,0.14882 0.97979,0.14882 0.70693,0 1.42007,-0.27905 0.71933,-0.28526 1.02319,-0.55811 h 0.062 v 1.27125 q -0.58911,0.24805 -1.20303,0.41548 -0.61391,0.16743 -1.28984,0.16743 -1.72392,0 -2.69131,-0.93018 -0.96738,-0.93638 -0.96738,-2.65412 0,-1.69913 0.92397,-2.69752 0.93018,-0.9984 2.44327,-0.9984 1.40146,0 2.158,0.81857 0.76275,0.81855 0.76275,2.32545 z m -1.13482,-0.89297 q -0.006,-0.91778 -0.46508,-1.42008 -0.45269,-0.5023 -1.38287,-0.5023 -0.93637,0 -1.49448,0.55191 -0.5519,0.55191 -0.62632,1.37047 z m 8.9979,0.68833 q 0,0.84337 -0.24184,1.5441 -0.24185,0.69454 -0.68213,1.17823 -0.40928,0.45889 -0.96738,0.71314 -0.55191,0.24805 -1.17202,0.24805 -0.53951,0 -0.97979,-0.11782 -0.43408,-0.11783 -0.88677,-0.36588 v 2.90217 h -1.16582 v -9.48165 h 1.16582 v 0.72554 q 0.46509,-0.39068 1.0418,-0.65113 0.58291,-0.26665 1.24023,-0.26665 1.25264,0 1.94717,0.94879 0.70073,0.94258 0.70073,2.62311 z m -1.20302,0.031 q 0,-1.25264 -0.42788,-1.87276 -0.42788,-0.62013 -1.31465,-0.62013 -0.5023,0 -1.01079,0.21705 -0.5085,0.21704 -0.97359,0.57051 v 3.92536 q 0.4961,0.22325 0.84956,0.30386 0.35967,0.0806 0.81236,0.0806 0.97358,0 1.51928,-0.65732 0.54571,-0.65733 0.54571,-1.94718 z m 4.19819,3.51609 h -1.16582 v -9.64908 h 1.16582 z m 8.21035,-3.46028 q 0,1.69293 -0.86816,2.67272 -0.86817,0.97979 -2.32544,0.97979 -1.46968,0 -2.33784,-0.97979 -0.86197,-0.97979 -0.86197,-2.67272 0,-1.69293 0.86197,-2.67272 0.86816,-0.98599 2.33784,-0.98599 1.45727,0 2.32544,0.98599 0.86816,0.97979 0.86816,2.67272 z m -1.20303,0 q 0,-1.34566 -0.5271,-1.99679 -0.5271,-0.65733 -1.46347,-0.65733 -0.94878,0 -1.47588,0.65733 -0.5209,0.65113 -0.5209,1.99679 0,1.30226 0.5271,1.97819 0.5271,0.66973 1.46968,0.66973 0.93017,0 1.45727,-0.66353 0.5333,-0.66973 0.5333,-1.98439 z m 8.90489,-3.46647 -4.04317,9.48164 h -1.24643 l 1.28984,-2.88976 -2.75952,-6.59188 h 1.26504 l 2.127,5.1346 2.1456,-5.1346 z"
       id="text4-5"
       style="fill:#ffffff;stroke-width:0.79375"
       aria-label="Deploy" /><text
       xml:space="preserve"
       transform="scale(0.26458333)"
       id="text10"
       style="font-size:48px;white-space:pre;shape-inside:url(#rect10);display:inline;fill:#0000ff;stroke:none;stroke-width:3;stroke-dasharray:none" /><g
       id="rect14"
       transform="translate(0,18.520839)"><path
         style="color:#000000;fill:#305775;-inkscape-stroke:none"
         d="m 347.73352,205.14891 h 104.84356 v 38.69773 H 347.73352 Z"
         id="path5" /><path
         style="color:#000000;fill:#a2b8cb;-inkscape-stroke:none"
         d="m 347.23828,204.6543 v 0.49414 39.19336 h 105.83399 v -39.6875 z m 0.99024,0.99023 h 103.85351 v 37.70703 H 348.22852 Z"
         id="path6" /></g><path
       d="m 365.55275,243.13966 q 0,1.25884 -0.5519,2.28203 -0.5457,1.02319 -1.45728,1.5875 -0.63252,0.39068 -1.41386,0.56431 -0.77515,0.17363 -2.04639,0.17363 h -2.33164 v -9.23354 h 2.30683 q 1.35186,0 2.14561,0.19843 0.79995,0.19224 1.35186,0.5333 0.94257,0.58912 1.46967,1.5689 0.5271,0.97979 0.5271,2.32544 z m -1.28364,-0.0186 q 0,-1.08521 -0.37827,-1.82935 -0.37827,-0.74414 -1.12861,-1.17202 -0.54571,-0.31006 -1.15962,-0.42788 -0.61392,-0.12402 -1.46968,-0.12402 h -1.15342 v 7.12514 h 1.15342 q 0.88677,0 1.54409,-0.13022 0.66353,-0.13023 1.21543,-0.48369 0.68833,-0.44029 1.02939,-1.15962 0.34727,-0.71934 0.34727,-1.79834 z m 4.42764,-3.46026 h -1.31465 v -1.20923 h 1.31465 z m -0.0744,8.08633 h -1.16582 v -6.92671 h 1.16582 z m 7.25537,-1.99678 q 0,0.94878 -0.78755,1.5565 -0.78134,0.60771 -2.1394,0.60771 -0.76894,0 -1.41387,-0.17983 -0.63872,-0.18604 -1.0728,-0.40308 v -1.30844 h 0.062 q 0.55191,0.41547 1.22783,0.66352 0.67593,0.24185 1.29605,0.24185 0.76894,0 1.20303,-0.24805 0.43408,-0.24805 0.43408,-0.78135 0,-0.40928 -0.23565,-0.62012 -0.23564,-0.21084 -0.90537,-0.35966 -0.24804,-0.0558 -0.65112,-0.13023 -0.39687,-0.0744 -0.72554,-0.16123 -0.91157,-0.24184 -1.29604,-0.70693 -0.37827,-0.47129 -0.37827,-1.15342 0,-0.42788 0.17363,-0.80615 0.17983,-0.37827 0.5395,-0.67593 0.34727,-0.29146 0.88057,-0.45889 0.5395,-0.17363 1.20303,-0.17363 0.62011,0 1.25263,0.15503 0.63872,0.14883 1.0604,0.36587 v 1.24643 h -0.062 q -0.44648,-0.32866 -1.0852,-0.5519 -0.63873,-0.22944 -1.25264,-0.22944 -0.63872,0 -1.07901,0.24804 -0.44028,0.24185 -0.44028,0.72554 0,0.42788 0.26665,0.64492 0.26045,0.21704 0.84336,0.35347 0.32246,0.0744 0.71934,0.14883 0.40307,0.0744 0.66972,0.13642 0.81236,0.18604 1.25264,0.63872 0.44028,0.45889 0.44028,1.21543 z m 6.79029,1.5627 q -0.58291,0.27905 -1.11001,0.43408 -0.5209,0.15503 -1.11001,0.15503 -0.75035,0 -1.37666,-0.21704 -0.62632,-0.22324 -1.07281,-0.66973 -0.45268,-0.44648 -0.70073,-1.12861 -0.24805,-0.68213 -0.24805,-1.5937 0,-1.69912 0.93018,-2.66651 0.93638,-0.96738 2.46807,-0.96738 0.59531,0 1.16582,0.16743 0.57671,0.16743 1.0542,0.40928 v 1.29605 h -0.062 q -0.5333,-0.41548 -1.1038,-0.63873 -0.56431,-0.22324 -1.10381,-0.22324 -0.99219,0 -1.5689,0.66973 -0.57051,0.66352 -0.57051,1.95337 0,1.25264 0.55811,1.92856 0.56431,0.66973 1.5813,0.66973 0.35346,0 0.71933,-0.093 0.36587,-0.093 0.65733,-0.24184 0.25425,-0.13023 0.47749,-0.27286 0.22324,-0.14882 0.35346,-0.25424 h 0.062 z m 7.39799,-3.02617 q 0,1.69292 -0.86816,2.6727 -0.86816,0.97979 -2.32544,0.97979 -1.46968,0 -2.33784,-0.97979 -0.86196,-0.97978 -0.86196,-2.6727 0,-1.69292 0.86196,-2.67271 0.86816,-0.98598 2.33784,-0.98598 1.45728,0 2.32544,0.98598 0.86816,0.97979 0.86816,2.67271 z m -1.20302,0 q 0,-1.34566 -0.5271,-1.99678 -0.5271,-0.65732 -1.46348,-0.65732 -0.94878,0 -1.47588,0.65732 -0.5209,0.65112 -0.5209,1.99678 0,1.30224 0.5271,1.97817 0.5271,0.66973 1.46968,0.66973 0.93018,0 1.45728,-0.66353 0.5333,-0.66972 0.5333,-1.98437 z m 8.90488,-3.46646 -2.80293,6.92671 h -1.17202 l -2.78433,-6.92671 h 1.26504 l 2.14561,5.51284 2.127,-5.51284 z m 7.21196,3.58428 h -5.10356 q 0,0.63872 0.19223,1.11621 0.19224,0.47129 0.5271,0.77515 0.32246,0.29765 0.76275,0.44648 0.44648,0.14883 0.97978,0.14883 0.70694,0 1.42007,-0.27905 0.71934,-0.28526 1.02319,-0.55811 h 0.062 v 1.27124 q -0.58912,0.24805 -1.20303,0.41548 -0.61392,0.16743 -1.28985,0.16743 -1.72392,0 -2.6913,-0.93017 -0.96739,-0.93638 -0.96739,-2.65411 0,-1.69912 0.92398,-2.69751 0.93017,-0.99838 2.44326,-0.99838 1.40146,0 2.15801,0.81855 0.76274,0.81856 0.76274,2.32544 z m -1.13481,-0.89297 q -0.006,-0.91777 -0.46509,-1.42007 -0.45269,-0.50229 -1.38286,-0.50229 -0.93638,0 -1.49448,0.5519 -0.55191,0.55191 -0.62632,1.37046 z m 7.22436,-1.42007 h -0.062 q -0.26045,-0.062 -0.5085,-0.0868 -0.24184,-0.031 -0.5767,-0.031 -0.53951,0 -1.0418,0.24185 -0.5023,0.23564 -0.96738,0.61391 v 4.91753 h -1.16582 v -6.92671 h 1.16582 v 1.0232 q 0.69453,-0.55811 1.22163,-0.78755 0.5333,-0.23565 1.0852,-0.23565 0.30386,0 0.44028,0.0186 0.13643,0.0124 0.40928,0.0558 z m 11.18072,5.65547 h -1.16582 v -0.72554 q -0.5023,0.43409 -1.048,0.67593 -0.5457,0.24185 -1.18443,0.24185 -1.24023,0 -1.97197,-0.95498 -0.72553,-0.95498 -0.72553,-2.6479 0,-0.88057 0.24804,-1.5689 0.25425,-0.68833 0.68213,-1.17202 0.42168,-0.47129 0.97979,-0.71934 0.5643,-0.24804 1.16582,-0.24804 0.5457,0 0.96738,0.11782 0.42168,0.11162 0.88677,0.35346 v -3.00136 h 1.16582 z m -1.16582,-1.70532 v -3.97495 q -0.47129,-0.21084 -0.84336,-0.29146 -0.37207,-0.0806 -0.81236,-0.0806 -0.97978,0 -1.52548,0.68213 -0.54571,0.68213 -0.54571,1.93476 0,1.23404 0.42168,1.87896 0.42168,0.63872 1.35186,0.63872 0.49609,0 1.00459,-0.21704 0.50849,-0.22325 0.94878,-0.57051 z m 8.84287,1.70532 h -1.15962 v -0.73794 q -0.15503,0.10542 -0.42168,0.29766 -0.26045,0.18603 -0.5085,0.29765 -0.29145,0.14263 -0.66972,0.23565 -0.37827,0.0992 -0.88677,0.0992 -0.93638,0 -1.5875,-0.62012 -0.65112,-0.62012 -0.65112,-1.5813 0,-0.78755 0.33486,-1.27124 0.34107,-0.48989 0.96738,-0.76894 0.63252,-0.27906 1.51929,-0.37828 0.88677,-0.0992 1.90376,-0.14882 v -0.17984 q 0,-0.39687 -0.14263,-0.65732 -0.13642,-0.26045 -0.39687,-0.40928 -0.24805,-0.14263 -0.59531,-0.19224 -0.34727,-0.0496 -0.72554,-0.0496 -0.45889,0 -1.02319,0.12402 -0.56431,0.11782 -1.16582,0.34726 h -0.062 v -1.18442 q 0.34107,-0.093 0.98599,-0.20464 0.64492,-0.11162 1.27124,-0.11162 0.73174,0 1.27124,0.12402 0.5457,0.11783 0.94258,0.40928 0.39067,0.28526 0.59531,0.73794 0.20464,0.45269 0.20464,1.12241 z m -1.15962,-1.70532 v -1.92857 q -0.5333,0.031 -1.25884,0.093 -0.71933,0.062 -1.14101,0.17984 -0.5023,0.14262 -0.81236,0.44648 -0.31006,0.29766 -0.31006,0.82476 0,0.59531 0.35967,0.89917 0.35967,0.29765 1.09761,0.29765 0.61392,0 1.12241,-0.23564 0.5085,-0.24185 0.94258,-0.57671 z m 7.00112,1.64331 q -0.32866,0.0868 -0.71933,0.14263 -0.38448,0.0558 -0.68833,0.0558 -1.0604,0 -1.61231,-0.57051 -0.5519,-0.57051 -0.5519,-1.82935 v -3.68349 h -0.78755 v -0.97979 h 0.78755 v -1.99057 h 1.16582 v 1.99057 h 2.40605 v 0.97979 h -2.40605 v 3.15639 q 0,0.54571 0.0248,0.85577 0.0248,0.30385 0.17364,0.5705 0.13642,0.24805 0.37207,0.36587 0.24184,0.11162 0.73173,0.11162 0.28526,0 0.59532,-0.0806 0.31006,-0.0868 0.44648,-0.14263 h 0.062 z m 6.79028,0.062 h -1.15962 v -0.73794 q -0.15503,0.10542 -0.42168,0.29766 -0.26045,0.18603 -0.50849,0.29765 -0.29146,0.14263 -0.66973,0.23565 -0.37827,0.0992 -0.88677,0.0992 -0.93637,0 -1.5875,-0.62012 -0.65112,-0.62012 -0.65112,-1.5813 0,-0.78755 0.33486,-1.27124 0.34107,-0.48989 0.96739,-0.76894 0.63252,-0.27906 1.51928,-0.37828 0.88677,-0.0992 1.90376,-0.14882 v -0.17984 q 0,-0.39687 -0.14262,-0.65732 -0.13643,-0.26045 -0.39688,-0.40928 -0.24805,-0.14263 -0.59531,-0.19224 -0.34727,-0.0496 -0.72554,-0.0496 -0.45889,0 -1.02319,0.12402 -0.56431,0.11782 -1.16582,0.34726 h -0.062 v -1.18442 q 0.34106,-0.093 0.98598,-0.20464 0.64492,-0.11162 1.27124,-0.11162 0.73174,0 1.27124,0.12402 0.54571,0.11783 0.94258,0.40928 0.39067,0.28526 0.59531,0.73794 0.20464,0.45269 0.20464,1.12241 z m -1.15962,-1.70532 v -1.92857 q -0.5333,0.031 -1.25884,0.093 -0.71933,0.062 -1.14101,0.17984 -0.5023,0.14262 -0.81235,0.44648 -0.31006,0.29766 -0.31006,0.82476 0,0.59531 0.35967,0.89917 0.35966,0.29765 1.0976,0.29765 0.61392,0 1.12241,-0.23564 0.5085,-0.24185 0.94258,-0.57671 z"
       id="path8"
       style="font-size:12.7px;fill:#ffffff;stroke-width:0.79375"
       aria-label="Discover data" /><g
       id="path2"
       transform="translate(0,18.520839)"><path
         style="color:#000000;fill:#ffffff;-inkscape-stroke:none"
         d="M 400.1553,138.76628 V 121.79466"
         id="path13" /><path
         style="color:#000000;fill:#a2b8cb;-inkscape-stroke:none"
         d="m 399.11914,121.79492 v 16.9707 h 2.07227 v -16.9707 z"
         id="path14" /><g
         id="g12"><path
           d="m 394.35488,124.69487 5.80042,-15.95116 5.80042,15.95116 c -3.37874,-2.90021 -8.2076,-2.90021 -11.60084,0 z"
           style="color:#000000;fill:#a2b8cb;fill-rule:evenodd;-inkscape-stroke:none"
           id="path12" /></g></g><g
       id="path3"
       transform="translate(0,18.520839)"><path
         style="color:#000000;fill:#ffffff;stroke-linecap:square;-inkscape-stroke:none"
         d="m 400.1553,205.64632 c 0,-17.2756 0,-17.2756 0,-17.2756"
         id="path10" /><path
         style="color:#000000;fill:#a2b8cb;stroke-linecap:square;-inkscape-stroke:none"
         d="m 399.10937,187.32617 v 1.04492 17.27539 1.04493 h 2.0918 v -1.04493 -17.27539 -1.04492 z"
         id="path11" /><g
         id="g9"><path
           d="m 394.29731,191.29972 5.85799,-16.10948 5.85799,16.10948 c -3.41228,-2.929 -8.28906,-2.929 -11.71598,0 z"
           style="color:#000000;fill:#a2b8cb;fill-rule:evenodd;-inkscape-stroke:none"
           id="path9" /></g></g><rect
       style="fill:#305775;fill-opacity:1;stroke:#a2b8cb;stroke-width:0.989774;stroke-dasharray:none;stroke-opacity:1"
       id="rect1"
       width="104.84356"
       height="38.697731"
       x="347.73352"
       y="24.908621" /><path
       style="fill:#ffffff;stroke-width:0.5"
       d="m 377.94579,48.778149 h -1.30844 l -0.90537,-2.573487 h -3.99356 l -0.90537,2.573487 h -1.24644 l 3.36104,-9.233545 h 1.63711 z m -2.59209,-3.627686 -1.6185,-4.533056 -1.62471,4.533056 z m 9.58082,3.627686 h -1.16583 v -0.768946 q -0.58911,0.465088 -1.12861,0.713135 -0.5395,0.248047 -1.19062,0.248047 -1.09141,0 -1.69912,-0.663525 -0.60772,-0.669727 -0.60772,-1.959571 V 41.85144 h 1.16582 v 3.943945 q 0,0.5271 0.0496,0.905371 0.0496,0.37207 0.21084,0.638721 0.16743,0.272851 0.43408,0.396875 0.26665,0.124023 0.77515,0.124023 0.45268,0 0.98599,-0.235644 0.5395,-0.235645 1.00458,-0.601514 V 41.85144 h 1.16583 z m 5.89111,-0.06201 q -0.32866,0.08682 -0.71934,0.142627 -0.38447,0.05581 -0.68833,0.05581 -1.0604,0 -1.6123,-0.570507 -0.55191,-0.570508 -0.55191,-1.829346 V 42.831225 H 386.4662 V 41.85144 h 0.78755 v -1.990576 h 1.16582 v 1.990576 h 2.40606 v 0.979785 h -2.40606 v 3.156396 q 0,0.545703 0.0248,0.855762 0.0248,0.303857 0.17363,0.570508 0.13643,0.248047 0.37207,0.365869 0.24185,0.111621 0.73174,0.111621 0.28525,0 0.59531,-0.08062 0.31006,-0.08682 0.44649,-0.142627 h 0.062 z m 7.31118,-3.398242 q 0,1.69292 -0.86816,2.672705 -0.86817,0.979785 -2.32544,0.979785 -1.46968,0 -2.33785,-0.979785 -0.86196,-0.979785 -0.86196,-2.672705 0,-1.69292 0.86196,-2.672705 0.86817,-0.985987 2.33785,-0.985987 1.45727,0 2.32544,0.985987 0.86816,0.979785 0.86816,2.672705 z m -1.20303,0 q 0,-1.345654 -0.5271,-1.996778 -0.5271,-0.657324 -1.46347,-0.657324 -0.94878,0 -1.47588,0.657324 -0.5209,0.651124 -0.5209,1.996778 0,1.302246 0.5271,1.978174 0.5271,0.669726 1.46968,0.669726 0.93017,0 1.45727,-0.663525 0.5333,-0.669727 0.5333,-1.984375 z m 13.11548,3.460254 h -1.16582 v -3.943946 q 0,-0.446484 -0.0434,-0.861962 -0.0372,-0.415479 -0.16743,-0.663526 -0.14263,-0.26665 -0.40928,-0.403076 -0.26665,-0.136426 -0.76894,-0.136426 -0.48989,0 -0.97979,0.248047 -0.48989,0.241846 -0.97978,0.620117 0.0186,0.142627 0.031,0.334864 0.0124,0.186035 0.0124,0.37207 v 4.433838 h -1.16582 v -3.943946 q 0,-0.458886 -0.0434,-0.868164 -0.0372,-0.415478 -0.16743,-0.663525 -0.14263,-0.26665 -0.40928,-0.396875 -0.26665,-0.136426 -0.76895,-0.136426 -0.47749,0 -0.96118,0.235645 -0.47749,0.235644 -0.95498,0.601513 v 5.171778 h -1.16582 V 41.85144 h 1.16582 v 0.768945 q 0.5457,-0.452685 1.08521,-0.706934 0.5457,-0.254248 1.15962,-0.254248 0.70693,0 1.19682,0.297657 0.4961,0.297656 0.73794,0.824756 0.70693,-0.595313 1.28984,-0.855762 0.58291,-0.266651 1.24644,-0.266651 1.14102,0 1.68052,0.694532 0.5457,0.68833 0.5457,1.928564 z m 7.62744,0 h -1.15962 v -0.73794 q -0.15502,0.10542 -0.42168,0.297656 -0.26044,0.186036 -0.50849,0.297657 -0.29146,0.142627 -0.66973,0.235644 -0.37827,0.09922 -0.88677,0.09922 -0.93637,0 -1.5875,-0.620117 -0.65112,-0.620117 -0.65112,-1.581299 0,-0.787549 0.33486,-1.27124 0.34107,-0.489893 0.96739,-0.768946 0.63252,-0.279052 1.51928,-0.378271 0.88677,-0.09922 1.90376,-0.148828 V 44.02185 q 0,-0.396875 -0.14262,-0.657324 -0.13643,-0.26045 -0.39688,-0.409278 -0.24804,-0.142627 -0.59531,-0.192236 -0.34727,-0.04961 -0.72554,-0.04961 -0.45888,0 -1.02319,0.124023 -0.56431,0.117822 -1.16582,0.347266 h -0.062 v -1.184424 q 0.34106,-0.09302 0.98598,-0.204639 0.64493,-0.111621 1.27124,-0.111621 0.73174,0 1.27124,0.124024 0.54571,0.117822 0.94258,0.409277 0.39068,0.285254 0.59531,0.737939 0.20464,0.452686 0.20464,1.122412 z m -1.15962,-1.705323 v -1.928564 q -0.5333,0.03101 -1.25883,0.09302 -0.71934,0.06201 -1.14102,0.179834 -0.50229,0.142626 -0.81235,0.446484 -0.31006,0.297656 -0.31006,0.824756 0,0.595312 0.35967,0.89917 0.35966,0.297656 1.0976,0.297656 0.61392,0 1.12242,-0.235645 0.50849,-0.241845 0.94257,-0.576709 z m 7.00113,1.643311 q -0.32866,0.08682 -0.71934,0.142627 -0.38447,0.05581 -0.68833,0.05581 -1.0604,0 -1.6123,-0.570507 -0.55191,-0.570508 -0.55191,-1.829346 v -3.683496 h -0.78755 V 41.85144 h 0.78755 v -1.990576 h 1.16582 v 1.990576 h 2.40606 v 0.979785 h -2.40606 v 3.156396 q 0,0.545703 0.0248,0.855762 0.0248,0.303857 0.17363,0.570508 0.13643,0.248047 0.37207,0.365869 0.24185,0.111621 0.73174,0.111621 0.28525,0 0.59531,-0.08062 0.31006,-0.08682 0.44649,-0.142627 h 0.062 z m 7.20576,-3.28042 h -5.10357 q 0,0.638721 0.19224,1.116211 0.19224,0.471289 0.5271,0.775146 0.32246,0.297657 0.76274,0.446485 0.44649,0.148828 0.97979,0.148828 0.70693,0 1.42007,-0.279053 0.71933,-0.285254 1.02319,-0.558105 h 0.062 v 1.27124 q -0.58911,0.248047 -1.20302,0.415478 -0.61392,0.167432 -1.28985,0.167432 -1.72392,0 -2.69131,-0.930176 -0.96738,-0.936377 -0.96738,-2.654101 0,-1.699121 0.92397,-2.69751 0.93018,-0.998389 2.44327,-0.998389 1.40146,0 2.158,0.818555 0.76275,0.818555 0.76275,2.32544 z m -1.13482,-0.892969 q -0.006,-0.917773 -0.46508,-1.420068 -0.45269,-0.502295 -1.38287,-0.502295 -0.93637,0 -1.49448,0.551904 -0.5519,0.551905 -0.62632,1.370459 z"
       id="text1"
       aria-label="Automate" /><g
       id="g8"
       transform="translate(1.036164,-47.861121)"><path
         style="color:#000000;fill:#ffffff;-inkscape-stroke:none"
         d="M 400.1553,138.76628 V 121.79466"
         id="path1" /><path
         style="color:#000000;fill:#a2b8cb;-inkscape-stroke:none"
         d="m 399.11914,121.79492 v 16.9707 h 2.07227 v -16.9707 z"
         id="path4" /><g
         id="g7"><path
           d="m 394.35488,124.69487 5.80042,-15.95116 5.80042,15.95116 c -3.37874,-2.90021 -8.2076,-2.90021 -11.60084,0 z"
           style="color:#000000;fill:#a2b8cb;fill-rule:evenodd;-inkscape-stroke:none"
           id="path7" /></g></g></g></svg>
