<?xml version="1.0" encoding="UTF-8" standalone="no"?>
<!-- Created with Inkscape (http://www.inkscape.org/) -->

<svg
   width="1920"
   height="1080"
   viewBox="0 0 508 285.75"
   version="1.1"
   id="svg1"
   xml:space="preserve"
   inkscape:version="1.3 (0e150ed6c4, 2023-07-21)"
   sodipodi:docname="k1.svg"
   xmlns:inkscape="http://www.inkscape.org/namespaces/inkscape"
   xmlns:sodipodi="http://sodipodi.sourceforge.net/DTD/sodipodi-0.dtd"
   xmlns:xlink="http://www.w3.org/1999/xlink"
   xmlns="http://www.w3.org/2000/svg"
   xmlns:svg="http://www.w3.org/2000/svg"><sodipodi:namedview
     id="namedview1"
     pagecolor="#000000"
     bordercolor="#000000"
     borderopacity="0.25"
     inkscape:showpageshadow="2"
     inkscape:pageopacity="0.0"
     inkscape:pagecheckerboard="0"
     inkscape:deskcolor="#d1d1d1"
     inkscape:document-units="mm"
     inkscape:zoom="0.38930275"
     inkscape:cx="472.63987"
     inkscape:cy="633.1833"
     inkscape:window-width="1920"
     inkscape:window-height="1009"
     inkscape:window-x="-8"
     inkscape:window-y="468"
     inkscape:window-maximized="1"
     inkscape:current-layer="layer1"
     showguides="true" /><defs
     id="defs1"><linearGradient
       id="linearGradient4"
       inkscape:collect="always"><stop
         style="stop-color:#305775;stop-opacity:1;"
         offset="0"
         id="stop5" /><stop
         style="stop-color:#3d7299;stop-opacity:1;"
         offset="0.5"
         id="stop7" /><stop
         style="stop-color:#305775;stop-opacity:1;"
         offset="1"
         id="stop6" /></linearGradient><linearGradient
       id="linearGradient2"
       inkscape:collect="always"><stop
         style="stop-color:#2c506d;stop-opacity:1;"
         offset="0"
         id="stop2" /><stop
         style="stop-color:#6a9cc3;stop-opacity:1;"
         offset="0.5"
         id="stop4" /><stop
         style="stop-color:#2c506d;stop-opacity:1;"
         offset="1"
         id="stop3" /></linearGradient><pattern
       id="EMFhbasepattern"
       patternUnits="userSpaceOnUse"
       width="6"
       height="6"
       x="0"
       y="0" /><pattern
       id="EMFhbasepattern-1"
       patternUnits="userSpaceOnUse"
       width="6"
       height="6"
       x="0"
       y="0" /><linearGradient
       inkscape:collect="always"
       xlink:href="#linearGradient2"
       id="linearGradient3"
       x1="216.14304"
       y1="202.58382"
       x2="215.90222"
       y2="162.224"
       gradientUnits="userSpaceOnUse"
       gradientTransform="matrix(-1,0,0,1,508.07802,-9.5964603)" /><linearGradient
       inkscape:collect="always"
       xlink:href="#linearGradient4"
       id="linearGradient6"
       x1="5.98071"
       y1="200.69415"
       x2="5.98071"
       y2="164.38031"
       gradientUnits="userSpaceOnUse"
       gradientTransform="matrix(-1,0,0,1,508.07802,-9.5964603)" /><linearGradient
       inkscape:collect="always"
       xlink:href="#linearGradient4"
       id="linearGradient9"
       x1="6.9646683"
       y1="261.58127"
       x2="5.9807291"
       y2="226.04164"
       gradientUnits="userSpaceOnUse" /></defs><g
     inkscape:label="Layer 1"
     inkscape:groupmode="layer"
     id="layer1"><path
       style="fill:none"
       d="m 0,225.15783 v -62.47272 h 254 254 v 62.47272 62.47271 H 254 0 Z m 458.02276,47.63446 c 0.31241,-0.11989 0.78443,-1.05228 0.88396,-1.74613 0.0488,-0.34004 0.20701,-1.05709 0.35163,-1.59345 0.32377,-1.20083 0.54081,-3.18345 0.54401,-4.96945 0.004,-2.06084 -0.47332,-1.9065 7.03669,-2.27685 2.37493,-0.11712 4.78818,-0.27221 5.36276,-0.34465 0.57458,-0.0724 2.32967,-0.19682 3.90019,-0.27641 3.04364,-0.15424 6.25243,-0.38379 6.82534,-0.48825 0.19152,-0.0349 1.60186,-0.13053 3.13408,-0.21245 1.53222,-0.0819 3.1306,-0.20847 3.55196,-0.28121 0.42136,-0.0727 2.14511,-0.22789 3.83055,-0.34476 3.47267,-0.24082 4.46753,-0.45137 4.67184,-0.98874 0.14762,-0.38828 0.15893,-4.69403 0.0155,-5.90509 l -0.0907,-0.76582 -1.94458,-0.16666 c -1.06952,-0.0917 -2.09442,-0.20426 -2.27755,-0.25022 -0.18313,-0.046 -2.81825,-0.17154 -5.8558,-0.27906 -3.03756,-0.10752 -6.52574,-0.2597 -7.75152,-0.33818 -1.22577,-0.0785 -4.04645,-0.20863 -6.26816,-0.28923 -2.22172,-0.0806 -5.63787,-0.23719 -7.59145,-0.34798 -1.95358,-0.11078 -4.9623,-0.26705 -6.68604,-0.34727 -1.72375,-0.0802 -3.7609,-0.20632 -4.52701,-0.28023 -0.76611,-0.0739 -5.24785,-0.20092 -9.95942,-0.28226 -4.71157,-0.0813 -9.91415,-0.20925 -11.56128,-0.28426 -1.64714,-0.075 -4.40513,-0.20301 -6.12888,-0.28445 -1.72374,-0.0814 -6.04877,-0.19987 -9.61118,-0.26316 -3.56241,-0.0633 -8.01281,-0.18022 -9.88977,-0.25984 -1.87697,-0.0796 -8.61525,-0.21194 -14.97396,-0.29404 -6.3587,-0.0821 -13.66111,-0.20969 -16.22758,-0.28351 -2.56647,-0.0738 -10.27631,-0.19598 -17.13299,-0.27146 -6.85667,-0.0755 -15.50674,-0.20716 -19.22237,-0.29263 -3.71563,-0.0855 -9.4703,-0.19691 -12.78816,-0.24767 -5.86918,-0.0898 -6.03885,-0.10007 -6.26817,-0.37984 -0.12963,-0.15816 -0.41688,-0.40889 -0.63832,-0.55717 -0.22145,-0.14829 -0.57544,-0.39498 -0.78663,-0.5482 -2.16298,-1.56923 -2.17413,-1.56884 -3.60173,0.12455 l -1.04444,1.2389 -14.34498,-0.10277 c -7.88973,-0.0565 -14.49193,-0.15865 -14.67154,-0.22694 -0.4195,-0.15949 -0.54156,-0.48856 -0.35981,-0.97006 0.0795,-0.21053 0.0963,-0.46077 0.0374,-0.55609 -0.0845,-0.13674 -4.39497,-0.17924 -20.42358,-0.20137 -13.68765,-0.0189 -21.02092,-0.0803 -22.47551,-0.18808 -1.18747,-0.088 -4.41557,-0.25538 -7.17356,-0.37192 -2.758,-0.11655 -5.86074,-0.30247 -6.89499,-0.41317 -1.03424,-0.11069 -2.63263,-0.23965 -3.55196,-0.28657 -0.91933,-0.0469 -2.42369,-0.17291 -3.34302,-0.27999 -0.91933,-0.10708 -2.61173,-0.26113 -3.7609,-0.34235 -1.14916,-0.0812 -2.49682,-0.21023 -2.99479,-0.28671 -0.49797,-0.0765 -1.84562,-0.23266 -2.99479,-0.34706 -1.14916,-0.11441 -2.18341,-0.23724 -2.29833,-0.27297 -0.11491,-0.0357 -1.3036,-0.19406 -2.64153,-0.35183 -1.33792,-0.15778 -2.68558,-0.34169 -2.99479,-0.40868 -0.30921,-0.067 -1.12633,-0.16522 -1.81583,-0.21826 -0.6895,-0.0531 -1.91179,-0.21718 -2.7162,-0.36473 -0.80442,-0.14755 -2.19056,-0.30646 -3.08033,-0.35313 l -1.61775,-0.0849 -0.0659,0.7947 c -0.0462,0.55669 -0.15278,0.88159 -0.356,1.0848 l -0.29009,0.29009 -15.64676,0.0295 c -9.939,0.0187 -18.82253,0.1118 -24.35254,0.25511 -4.78818,0.12409 -11.93389,0.29061 -15.87935,0.37006 -3.94547,0.0794 -8.14514,0.20721 -9.33261,0.28394 -1.18746,0.0767 -5.82591,0.23574 -10.30765,0.35335 -4.48173,0.11762 -9.08884,0.27183 -10.238,0.34268 -1.14916,0.0709 -4.59665,0.19497 -7.66109,0.2758 -3.064438,0.0808 -6.292543,0.2052 -7.173568,0.27638 -0.881026,0.0712 -3.827064,0.19718 -6.546751,0.27999 -2.719688,0.0828 -5.603044,0.21204 -6.407458,0.28716 -0.804415,0.0751 -3.154977,0.19958 -5.223472,0.27658 -4.075191,0.1517 -7.579405,0.32773 -10.86482,0.54579 -1.149164,0.0763 -3.413493,0.20355 -5.031842,0.28284 -1.61835,0.0793 -3.436118,0.2033 -4.039485,0.27558 -0.603367,0.0723 -2.538709,0.19809 -4.30076,0.27957 -1.762051,0.0815 -4.01859,0.2404 -5.014532,0.35315 -0.995942,0.11274 -3.080481,0.26982 -4.63231,0.34905 -1.551828,0.0792 -3.463619,0.232 -4.248423,0.33949 -0.784805,0.10749 -2.335801,0.23465 -3.44666,0.28256 -1.110858,0.0479 -2.70924,0.1759 -3.55196,0.28441 -0.84272,0.10851 -2.566466,0.26594 -3.830546,0.34984 -1.26408,0.0839 -2.79978,0.24003 -3.412668,0.34695 -0.612887,0.10691 -2.04261,0.26009 -3.177162,0.34038 -1.134552,0.0803 -2.325504,0.20341 -2.646559,0.27358 -0.321055,0.0702 -1.335917,0.19896 -2.255248,0.28619 -0.919331,0.0872 -2.141623,0.24771 -2.716205,0.3566 -0.574582,0.10889 -1.734192,0.26074 -2.5769123,0.33745 -1.350923,0.12297 -2.375281,0.30141 -4.1131634,0.7165 -0.5814267,0.13888 -1.7255863,1.17407 -2.2915908,2.07335 -0.2169842,0.34475 -0.4991056,0.78352 -0.6269364,0.97505 -0.1278308,0.19153 -0.4000925,0.70477 -0.6050259,1.14054 -0.3270093,0.69535 -0.3726062,0.96437 -0.3726062,2.19833 0,1.51982 0.1604962,2.1045 0.7133341,2.59868 0.4348365,0.38869 0.7630955,0.43507 4.3011984,0.60768 1.6471346,0.0804 3.5275845,0.20675 4.1787775,0.28087 0.651192,0.0741 3.628571,0.22947 6.616397,0.34523 2.987825,0.11576 6.654702,0.27187 8.148615,0.34691 1.493913,0.075 5.474198,0.20226 8.845078,0.2827 3.37088,0.0805 7.006416,0.20532 8.078969,0.2775 1.072553,0.0722 4.269317,0.19507 7.103921,0.27308 7.16853,0.19729 9.370346,0.27363 12.257746,0.42499 1.378997,0.0723 4.951851,0.1967 7.939677,0.27646 2.987825,0.0798 7.187496,0.23649 9.332602,0.34828 2.145105,0.11178 6.250754,0.26913 9.123663,0.34966 2.872909,0.0805 6.226378,0.20822 7.452152,0.28376 1.225775,0.0755 5.362764,0.22948 9.193314,0.3421 3.83054,0.11262 7.99887,0.26612 9.26295,0.3411 1.26408,0.075 5.18169,0.20149 8.70579,0.2811 3.5241,0.0796 7.59841,0.21047 9.05401,0.29079 3.58377,0.19775 21.99309,0.64416 36.7036,0.89003 6.62684,0.11075 15.21423,0.27001 19.08308,0.35389 15.9366,0.34554 27.84909,0.41769 71.31779,0.43192 44.32587,0.0145 50.86576,-0.0331 59.19935,-0.43124 1.64713,-0.0787 6.25423,-0.20584 10.238,-0.28255 3.98377,-0.0767 8.22134,-0.19739 9.41684,-0.26817 1.19549,-0.0708 5.23846,-0.1974 8.98437,-0.28137 3.74591,-0.084 8.25242,-0.21239 10.01447,-0.28539 1.76205,-0.073 7.71681,-0.25656 13.2328,-0.40792 5.51598,-0.15135 10.21711,-0.30689 10.44694,-0.34563 0.22983,-0.0387 4.21012,-0.16676 8.84508,-0.28449 4.63496,-0.11773 9.30474,-0.27485 10.3773,-0.34916 1.07255,-0.0743 4.83345,-0.20263 8.35755,-0.28516 3.5241,-0.0825 7.00293,-0.20829 7.73074,-0.27949 2.11816,-0.2072 7.35019,-0.42419 25.14231,-1.04273 3.21765,-0.11186 6.42762,-0.26621 7.13325,-0.343 0.70563,-0.0768 1.99957,-0.13962 2.87542,-0.13962 1.78688,0 1.69435,-0.0577 1.84022,1.14746 0.0488,0.40314 0.17242,1.02862 0.27471,1.38996 0.1023,0.36133 0.23019,1.11351 0.28421,1.67151 0.054,0.558 0.24606,1.51137 0.42677,2.1186 0.18071,0.60724 0.32856,1.1978 0.32856,1.31235 0,0.11456 0.14819,0.5893 0.3293,1.05497 0.18111,0.46568 0.37075,0.96565 0.42141,1.11106 0.0843,0.24206 0.19599,0.25699 1.32338,0.17697 0.6772,-0.0481 1.32385,-0.12293 1.43702,-0.16635 z M 273.29202,217.49605 c 1.18747,-0.10935 2.81719,-0.23977 3.62161,-0.28983 1.7464,-0.10867 3.01798,-0.5002 4.73594,-1.45824 1.439,-0.80247 2.01627,-0.92978 5.64135,-1.24417 0.84272,-0.0731 2.19038,-0.19577 2.99479,-0.27264 0.80442,-0.0769 3.75046,-0.20536 6.54676,-0.28553 2.79629,-0.0802 5.96172,-0.20699 7.03427,-0.28181 1.07255,-0.0748 4.86479,-0.23065 8.4272,-0.34628 3.56241,-0.11564 7.13526,-0.27031 7.93968,-0.34371 0.80441,-0.0734 3.87581,-0.19964 6.82533,-0.28053 2.94952,-0.0809 7.14919,-0.23897 9.3326,-0.35128 2.18342,-0.11231 6.22638,-0.2692 8.98438,-0.34864 2.75799,-0.0794 5.76671,-0.20285 6.68604,-0.27425 0.91933,-0.0714 3.89671,-0.1957 6.6164,-0.27625 2.71968,-0.0805 6.48058,-0.23948 8.35755,-0.35318 1.87697,-0.11369 5.26294,-0.27236 7.52439,-0.35258 2.26144,-0.0802 4.67469,-0.20593 5.36276,-0.27934 0.68808,-0.0734 3.45564,-0.22693 6.15014,-0.34115 2.69451,-0.11422 5.48384,-0.27076 6.19852,-0.34786 0.71468,-0.0771 2.86647,-0.20245 4.78174,-0.27856 1.91527,-0.0761 3.98367,-0.20233 4.59643,-0.2805 0.61277,-0.0782 2.95576,-0.23701 5.20665,-0.353 2.25089,-0.11598 4.14369,-0.24249 4.20622,-0.28113 0.0625,-0.0386 1.7625,-0.16311 3.77772,-0.27659 2.01522,-0.11347 4.44755,-0.29811 5.40519,-0.41029 0.95764,-0.11218 2.462,-0.24051 3.34302,-0.28517 0.88103,-0.0447 2.79282,-0.20055 4.24843,-0.34641 1.4556,-0.14586 3.61812,-0.33605 4.80559,-0.42266 1.18747,-0.0866 2.4411,-0.20914 2.78585,-0.27232 0.34475,-0.0632 1.59838,-0.18562 2.78585,-0.27209 1.18747,-0.0865 2.40976,-0.21303 2.71621,-0.28124 0.30644,-0.0682 1.43471,-0.1941 2.50726,-0.27976 1.07256,-0.0857 2.70228,-0.27288 3.62161,-0.41607 0.91933,-0.14319 2.26699,-0.30189 2.99479,-0.35267 0.7278,-0.0508 1.79339,-0.17593 2.36797,-0.27812 0.57459,-0.10219 1.60883,-0.22512 2.29833,-0.27318 0.6895,-0.0481 1.78643,-0.17578 2.43762,-0.28383 0.65119,-0.10805 2.12421,-0.29496 3.27338,-0.41536 1.14916,-0.1204 2.77888,-0.30977 3.6216,-0.42082 0.84272,-0.11105 2.75451,-0.36209 4.24843,-0.55785 1.49391,-0.19577 3.65643,-0.48219 4.80559,-0.6365 2.82249,-0.37899 6.27485,-0.79446 8.63614,-1.03929 1.07255,-0.11121 2.1068,-0.23386 2.29833,-0.27257 0.19153,-0.0387 1.28845,-0.1923 2.43762,-0.34131 3.45236,-0.44766 6.76018,-0.94409 9.47189,-1.42152 0.84272,-0.14837 1.88786,-0.32438 2.32253,-0.39113 1.53509,-0.23576 2.34375,-0.44576 2.34164,-0.60811 -0.006,-0.43207 -0.30714,-0.53031 -2.42347,-0.78959 -1.20735,-0.14792 -2.29944,-0.30116 -2.42687,-0.34053 -0.12744,-0.0394 -1.07031,-0.16879 -2.09528,-0.28758 -1.02496,-0.11879 -2.12189,-0.27282 -2.43762,-0.3423 -0.31572,-0.0695 -1.48293,-0.22824 -2.59379,-0.35281 -1.11086,-0.12457 -2.23913,-0.28334 -2.50726,-0.35284 -0.26814,-0.0695 -1.23971,-0.22318 -2.15904,-0.34153 -0.91933,-0.11835 -2.61173,-0.33556 -3.7609,-0.48268 -1.14916,-0.14712 -2.50333,-0.33432 -3.00927,-0.41599 -0.50593,-0.0817 -1.80286,-0.24168 -2.88205,-0.35557 -1.0792,-0.11389 -2.24612,-0.27071 -2.59317,-0.34848 -0.34704,-0.0778 -1.46336,-0.20258 -2.48071,-0.27736 -1.01734,-0.0748 -2.28849,-0.22771 -2.82476,-0.33987 -0.53628,-0.11215 -1.44516,-0.24172 -2.01974,-0.28791 -1.48303,-0.11923 -5.7199,-0.58248 -8.98437,-0.98233 -3.57246,-0.43758 -7.5114,-0.87126 -8.84508,-0.97386 -0.57458,-0.0442 -1.60883,-0.16707 -2.29833,-0.27302 -0.6895,-0.10595 -2.2252,-0.26316 -3.41267,-0.34933 -1.18747,-0.0862 -2.84853,-0.24235 -3.69125,-0.34705 -0.84272,-0.1047 -2.15904,-0.23122 -2.92515,-0.28116 -0.7661,-0.0499 -1.92572,-0.17714 -2.57691,-0.28266 -0.65119,-0.10553 -2.36216,-0.29189 -3.80216,-0.41415 -1.43999,-0.12225 -2.69362,-0.24997 -2.78585,-0.2838 -0.0922,-0.0338 -1.51533,-0.15542 -3.16247,-0.27018 -1.64713,-0.11476 -3.77831,-0.29968 -4.73595,-0.41092 -0.95763,-0.11125 -3.18283,-0.2696 -4.94488,-0.35189 -1.76205,-0.0823 -3.6425,-0.20934 -4.17878,-0.28234 -0.53627,-0.073 -2.47941,-0.19806 -4.31807,-0.27793 -1.83866,-0.0799 -4.31459,-0.23943 -5.50205,-0.3546 -1.18747,-0.11516 -3.53804,-0.27186 -5.22348,-0.34821 -1.68544,-0.0764 -3.82948,-0.19991 -4.76455,-0.27456 -0.93506,-0.0746 -3.63037,-0.20126 -5.98958,-0.28136 -2.3592,-0.0801 -4.88494,-0.20271 -5.61274,-0.27247 -1.38541,-0.1328 -5.42678,-0.33194 -11.42199,-0.56284 -1.95358,-0.0752 -4.8056,-0.19754 -6.33782,-0.27179 -1.53221,-0.0742 -5.13641,-0.20217 -8.00932,-0.28429 -2.87291,-0.0821 -5.91297,-0.2066 -6.75569,-0.27663 -0.84272,-0.07 -4.10216,-0.19552 -7.24321,-0.27886 -3.14105,-0.0833 -6.40049,-0.20994 -7.24321,-0.28134 -0.84272,-0.0714 -4.10217,-0.197 -7.24322,-0.27912 -3.14105,-0.0821 -7.08999,-0.24172 -8.77543,-0.35467 -1.68544,-0.11294 -5.13293,-0.26694 -7.66109,-0.34221 -2.52816,-0.0753 -5.69359,-0.19862 -7.03428,-0.2741 -1.34069,-0.0755 -3.97332,-0.20003 -5.85028,-0.27679 -4.0001,-0.16358 -5.20858,-0.24735 -6.3156,-0.43779 -0.44745,-0.077 -1.63918,-0.18573 -2.6483,-0.24168 -1.76067,-0.0976 -1.8674,-0.12118 -2.64329,-0.58358 -2.15222,-1.28263 -2.33231,-1.33786 -4.69004,-1.43814 -1.11086,-0.0472 -2.74059,-0.14996 -3.62161,-0.22824 -2.99295,-0.26593 -23.64063,0.11381 -27.44064,0.50468 -1.11086,0.11426 -2.95996,0.29417 -4.10913,0.3998 -1.14916,0.10563 -2.37145,0.25418 -2.7162,0.33011 -0.34475,0.0759 -1.34766,0.20822 -2.22868,0.29398 -0.88103,0.0858 -2.00755,0.24948 -2.50338,0.36381 -0.49583,0.11434 -1.87483,0.26947 -3.06444,0.34474 -1.18961,0.0753 -3.38521,0.2259 -4.87913,0.33476 -1.49391,0.10885 -3.96984,0.23767 -5.50205,0.28625 -1.53222,0.0486 -3.6634,0.17505 -4.73595,0.28103 -1.07255,0.10599 -3.26641,0.25999 -4.87524,0.34222 -1.60883,0.0822 -3.26989,0.20744 -3.69125,0.27823 -0.42136,0.0708 -2.11377,0.1965 -3.7609,0.27936 -1.64714,0.0829 -3.46491,0.21118 -4.03949,0.28517 -0.57458,0.074 -2.51771,0.22729 -4.31807,0.34065 -1.80035,0.11336 -4.11958,0.29857 -5.15382,0.41158 -1.03425,0.11301 -3.32213,0.27279 -5.08418,0.35506 -1.76205,0.0823 -3.54848,0.20805 -3.96984,0.27951 -0.42136,0.0715 -2.17645,0.19883 -3.90019,0.28303 -1.72375,0.0842 -3.82317,0.24362 -4.66538,0.35426 -0.8422,0.11063 -2.44059,0.23551 -3.55196,0.27749 -1.11136,0.042 -3.39966,0.19464 -5.0851,0.33923 -1.68544,0.14458 -3.94198,0.30199 -5.01453,0.3498 -1.07256,0.0478 -2.6618,0.17849 -3.53167,0.29043 -0.86986,0.11193 -2.78165,0.26083 -4.24842,0.33087 -1.46677,0.0701 -3.63842,0.22137 -4.82589,0.33627 -1.18747,0.1149 -3.25932,0.27673 -4.60411,0.35961 -1.34479,0.0829 -2.81781,0.20923 -3.27338,0.28075 -0.45556,0.0715 -2.14461,0.19823 -3.75344,0.28157 -1.60883,0.0833 -3.4266,0.21274 -4.03949,0.28755 -0.61288,0.0748 -2.36797,0.22715 -3.90019,0.33855 -1.53222,0.1114 -3.69473,0.30105 -4.80559,0.42145 -1.11086,0.12039 -3.3674,0.2751 -5.01453,0.34378 -1.64714,0.0687 -3.32387,0.18729 -3.72607,0.26358 -0.40221,0.0763 -1.93724,0.20656 -3.4112,0.28949 -1.47395,0.0829 -3.49544,0.23987 -4.49219,0.34875 -0.99675,0.10889 -3.31664,0.26726 -5.1553,0.35196 -1.838661,0.0847 -3.750451,0.21024 -4.248422,0.279 -0.497971,0.0688 -1.782945,0.16482 -2.855498,0.21347 -1.072553,0.0487 -3.047025,0.20738 -4.387716,0.35274 -1.340691,0.14536 -3.722594,0.32893 -5.293118,0.40795 -1.570523,0.079 -2.980861,0.1716 -3.134082,0.20574 -0.153222,0.0342 -1.782945,0.15841 -3.621607,0.27613 -1.838662,0.11772 -4.722018,0.33965 -6.407458,0.49318 -3.083121,0.28083 -7.218585,0.53819 -14.556074,0.90585 -2.183411,0.10941 -5.474198,0.29801 -7.31286,0.41912 -1.838662,0.12111 -4.847381,0.31335 -6.686043,0.4272 -7.818537,0.48414 -11.869487,0.7506 -13.406067,0.88183 -0.900642,0.0769 -2.295688,0.17711 -3.100103,0.22264 -0.804414,0.0455 -2.841568,0.20341 -4.527008,0.35084 -1.68544,0.14742 -4.192706,0.36298 -5.571703,0.47901 -2.365216,0.19902 -3.969838,0.51017 -3.969838,0.7698 0,0.20036 1.82683,0.36974 11.282698,1.04612 2.643077,0.18906 5.996545,0.43849 7.452153,0.55429 1.455607,0.11581 3.116671,0.24085 3.691253,0.27787 0.574581,0.037 2.329668,0.16402 3.900192,0.28221 1.570523,0.11819 4.547902,0.3423 6.616397,0.49801 2.068494,0.15572 4.638442,0.34231 5.710995,0.41465 1.072553,0.0723 2.576912,0.1915 3.343022,0.26479 0.766109,0.0733 2.082424,0.17171 2.925144,0.21872 0.84272,0.047 2.785851,0.17596 4.318069,0.28657 1.532218,0.1106 4.63496,0.32752 6.894982,0.48203 2.260022,0.15451 4.641925,0.33911 5.293118,0.41023 0.651193,0.0711 1.967508,0.16823 2.925144,0.21581 0.957636,0.0476 2.650041,0.17574 3.760899,0.28479 1.110859,0.10904 3.524102,0.29356 5.362764,0.41003 1.838662,0.11646 3.437044,0.23995 3.551961,0.27441 0.114916,0.0345 1.77598,0.16145 3.691253,0.2822 1.915273,0.12075 4.359857,0.30723 5.43241,0.4144 1.072553,0.10717 2.764958,0.23357 3.760903,0.28089 0.99594,0.0473 2.24957,0.14454 2.78585,0.21603 0.53627,0.0715 2.51075,0.22489 4.38771,0.34088 1.87697,0.11599 4.3529,0.30472 5.50206,0.4194 1.14916,0.11468 3.34302,0.27083 4.87524,0.34699 1.53222,0.0762 3.56937,0.227 4.52701,0.33519 0.95764,0.10818 2.6187,0.23696 3.69125,0.28616 1.07255,0.0492 2.70228,0.17549 3.62161,0.28063 0.91933,0.10513 2.48637,0.23161 3.48231,0.28105 0.99594,0.0494 2.71969,0.17862 3.83055,0.28704 1.11086,0.10843 3.17935,0.2624 4.59665,0.34217 1.41731,0.0798 3.4858,0.23684 4.59666,0.34907 1.11086,0.11223 3.05399,0.26825 4.31807,0.34672 1.26408,0.0785 3.20721,0.23244 4.31807,0.34214 1.11086,0.1097 2.80326,0.23801 3.7609,0.28512 0.95763,0.0471 2.49333,0.17387 3.41266,0.28167 0.91934,0.10781 2.79979,0.26236 4.17878,0.34344 1.379,0.0811 3.29079,0.23479 4.24843,0.34157 0.95763,0.10678 2.6187,0.23468 3.69125,0.28422 1.07255,0.0495 3.04702,0.20589 4.38771,0.34745 1.3407,0.14156 3.28383,0.29791 4.31807,0.34744 1.03425,0.0495 2.72666,0.1765 3.7609,0.28215 1.03425,0.10566 2.97738,0.26113 4.31807,0.3455 1.34069,0.0844 3.31517,0.24444 4.38772,0.3557 1.07255,0.11127 3.14105,0.26356 4.59665,0.33842 1.45561,0.0749 3.13575,0.19934 3.73365,0.27661 0.59791,0.0773 2.22763,0.20542 3.62161,0.28477 1.39398,0.0794 3.38072,0.23593 4.41497,0.34794 1.03424,0.11202 3.19676,0.27027 4.80559,0.35168 1.60883,0.0814 3.01189,0.17792 3.11792,0.21448 0.10603,0.0365 1.4725,0.15655 3.03661,0.26666 1.56578,0.11022 3.48234,0.33445 4.26459,0.49893 3.22414,0.67792 3.96714,0.8181 4.76377,0.89873 0.45966,0.0465 1.33721,0.17244 1.9501,0.2798 0.61288,0.10736 1.86652,0.26309 2.78585,0.34607 0.91933,0.083 2.00905,0.21024 2.4216,0.28281 0.41255,0.0726 1.91691,0.22642 3.34302,0.3419 1.42611,0.11548 2.96902,0.2708 3.42869,0.34515 0.45966,0.0744 2.46547,0.23275 4.45736,0.35199 1.99188,0.11923 3.71563,0.25687 3.83054,0.30586 0.28244,0.12041 9.15696,0.26177 13.30244,0.21189 1.83867,-0.0221 4.31459,-0.1297 5.50206,-0.23905 z m -36.1657,-4.0388 c -0.0606,-0.15789 -0.31584,-0.20894 -1.04469,-0.20894 -1.05862,0 -1.16547,-0.0835 -0.98048,-0.76611 0.10699,-0.39482 0.15694,-0.42018 0.90531,-0.45967 0.78111,-0.0412 0.79627,-0.0347 1.09455,0.47086 l 0.30246,0.51264 0.92075,-0.0772 c 1.07409,-0.09 1.63717,-0.31103 1.75735,-0.68968 0.0723,-0.22789 0.16585,-0.25547 0.59467,-0.17538 0.5029,0.0939 0.67975,0.17174 0.56688,0.24944 -0.8127,0.55948 -1.26737,0.79366 -1.68976,0.87032 -0.28456,0.0517 -0.58998,0.18138 -0.6787,0.28828 -0.23024,0.27743 -1.6408,0.26567 -1.74834,-0.0146 z m -7.07104,-1.02269 c -0.11554,-0.18694 0.61967,-0.57917 1.0856,-0.57917 0.39647,0 0.60236,0.2346 0.39121,0.44576 -0.20807,0.20806 -1.36602,0.31267 -1.47681,0.13341 z m 13.95048,-0.54401 c -1.58847,-0.0357 -1.91527,-0.0786 -1.91527,-0.25148 0,-0.48073 0.64414,-0.51883 4.73594,-0.28013 2.18341,0.12737 4.12655,0.26884 4.31807,0.31437 l 0.34823,0.0828 -0.34823,0.10541 c -0.34044,0.10305 -3.307,0.11512 -7.13874,0.029 z m -4.80541,-0.13591 c -0.264,-0.0328 -0.51296,-0.1691 -0.5976,-0.32726 -0.12211,-0.22816 -0.0876,-0.29294 0.21782,-0.40906 0.44991,-0.17106 0.90853,-0.17361 1.17261,-0.007 0.16274,0.10297 0.16994,0.19539 0.0378,0.48539 -0.0898,0.19701 -0.21157,0.34818 -0.27067,0.33592 -0.0591,-0.0123 -0.31109,-0.0476 -0.55997,-0.0785 z m -8.81044,-0.34156 c -0.19153,-0.0837 -1.82125,-0.2057 -3.62161,-0.27107 -2.57928,-0.0936 -3.43376,-0.17326 -4.02977,-0.37546 -0.41602,-0.14113 -0.69809,-0.28799 -0.62682,-0.32636 0.0713,-0.0384 1.4459,-0.0139 3.05473,0.0543 1.60883,0.0682 3.48378,0.0923 4.16657,0.0536 1.4995,-0.0851 2.2192,0.13044 2.14649,0.64279 -0.052,0.3666 -0.53429,0.46496 -1.08959,0.22223 z m 3.28241,-0.23953 c -0.0476,-0.077 0.025,-0.19593 0.16118,-0.26435 0.28456,-0.14295 0.87808,-0.0265 0.91752,0.18008 0.0354,0.18522 -0.96787,0.26359 -1.0787,0.0843 z m 23.37819,-0.62751 c -0.051,-0.13288 -0.0238,-0.31055 0.0605,-0.39482 0.11143,-0.11143 0.17851,-0.0873 0.24593,0.0884 0.051,0.13288 0.0238,0.31055 -0.0605,0.39482 -0.11144,0.11143 -0.17851,0.0873 -0.24593,-0.0884 z m 0.64074,-0.78004 c 0,-0.0766 0.0664,-0.13929 0.14752,-0.13929 0.0811,0 0.10877,0.0627 0.0614,0.13929 -0.0473,0.0766 -0.11373,0.13929 -0.14751,0.13929 -0.0338,0 -0.0614,-0.0627 -0.0614,-0.13929 z m 0.55717,-0.55717 c 0,-0.0766 0.23506,-0.13489 0.52235,-0.1295 0.41902,0.008 0.46724,0.0335 0.24376,0.1295 -0.38708,0.16633 -0.76611,0.16633 -0.76611,0 z m 18.41611,-0.26837 c -2.19285,-0.062 -2.85269,-0.12312 -2.94509,-0.27294 -0.0764,-0.12392 0.014,-0.47316 0.25236,-0.97505 0.55145,-1.16097 0.53378,-1.14249 0.92293,-0.96518 0.25006,0.11394 0.38922,0.11296 0.52981,-0.004 0.10487,-0.087 0.43581,-0.15432 0.73541,-0.14953 0.29961,0.005 1.35811,0.008 2.35224,0.006 1.19356,-0.002 1.84047,0.0511 1.90458,0.15481 0.0534,0.0864 0.14015,0.52811 0.19278,0.98158 0.1566,1.34926 0.18536,1.34034 -3.94502,1.22361 z m -30.77832,-0.22177 c -0.35228,-0.24967 -0.40507,-0.77604 -0.16467,-1.64177 0.17399,-0.62657 0.50786,-0.81278 0.77601,-0.43281 0.1034,0.14651 0.4809,0.63231 0.83889,1.07954 0.70542,0.88126 0.67848,1.05896 -0.16178,1.06707 -0.22983,0.002 -0.54324,0.0369 -0.69646,0.0771 -0.15322,0.0402 -0.41962,-0.0269 -0.59199,-0.14909 z m 14.38196,-0.20632 c 0.0473,-0.0766 0.20775,-0.1393 0.35645,-0.1393 0.1487,0 0.27036,0.0627 0.27036,0.1393 0,0.0766 -0.1604,0.13929 -0.35645,0.13929 -0.20216,0 -0.31919,-0.0603 -0.27036,-0.13929 z m -30.4367,-5.36123 c 0.17398,-0.20964 0.41915,-0.16499 0.41915,0.0763 0,0.0721 -0.13304,0.13107 -0.29564,0.13107 -0.24603,0 -0.26676,-0.0348 -0.12351,-0.2074 z m 0.5713,-0.66318 c -0.14115,-0.37665 0.0693,-0.49806 0.88871,-0.51255 l 0.55334,-0.01 -0.3444,0.23806 c -0.18942,0.13093 -0.42723,0.31898 -0.52847,0.41788 -0.26746,0.26128 -0.43602,0.22172 -0.56918,-0.1336 z m -2.20672,-0.34523 c 0.28729,-0.0301 0.7574,-0.0301 1.0447,0 0.28729,0.0301 0.0522,0.0546 -0.52235,0.0546 -0.57458,0 -0.80964,-0.0246 -0.52235,-0.0546 z m 44.06052,-4.48095 c -0.54979,-0.21529 0.12627,-0.35465 1.94085,-0.40006 1.82734,-0.0457 2.4839,0.079 2.01974,0.38369 -0.24245,0.15916 -3.56094,0.17288 -3.96059,0.0164 z m -72.71996,-4.40154 c -0.0766,-0.026 -0.38569,-0.0887 -0.68683,-0.13933 -0.66678,-0.11215 -0.42537,-0.34318 0.36202,-0.34647 0.7295,-0.003 1.00019,0.11974 0.79883,0.36236 -0.16124,0.19429 -0.22001,0.20959 -0.47402,0.12344 z m -2.9208,-0.52877 c -0.0596,-0.13737 -0.0693,-0.28885 -0.0216,-0.33662 0.14145,-0.14145 0.25548,0.0572 0.19037,0.33173 -0.0577,0.24334 -0.0652,0.24355 -0.16881,0.005 z m 202.9101,-2.98408 c 0.21068,-0.0319 0.55543,-0.0319 0.76611,0 0.21068,0.0319 0.0383,0.058 -0.38305,0.058 -0.42136,0 -0.59374,-0.0261 -0.38306,-0.058 z m -12.32739,-0.5557 c 0.17237,-0.0332 0.45444,-0.0332 0.62682,0 0.17237,0.0332 0.0313,0.0604 -0.31341,0.0604 -0.34475,0 -0.48579,-0.0272 -0.31341,-0.0604 z m -113.42641,-0.73094 c -0.60165,-0.22959 -2.46934,-1.73173 -2.3284,-1.87267 0.0462,-0.0462 2.04029,-0.0839 4.43138,-0.0839 3.31088,0 4.38063,0.0415 4.48661,0.17412 0.18225,0.22802 0.34548,1.6662 0.20947,1.84562 -0.0645,0.0851 -1.29823,0.14183 -3.17002,0.14581 -2.44091,0.005 -3.17931,-0.0373 -3.62904,-0.20894 z m -27.83293,-0.18063 c -0.17603,-0.65683 -0.0975,-1.74245 0.13243,-1.83068 0.20634,-0.0792 2.9835,0.0487 2.9835,0.1374 0,0.0224 -0.34184,0.36412 -0.75965,0.75927 -1.25108,1.18322 -2.18978,1.55531 -2.35628,0.93401 z m 124.61388,0.21739 c 0.13407,-0.035 0.35345,-0.035 0.48752,0 0.13407,0.035 0.0244,0.0637 -0.24376,0.0637 -0.26814,0 -0.37783,-0.0287 -0.24376,-0.0637 z"
       id="path4" /><g
       id="g10"
       transform="matrix(-1,0,0,1,508.07802,-138.58884)"><path
         style="fill:url(#linearGradient9);fill-opacity:1;stroke:#305775;stroke-width:1.1;stroke-dasharray:none;stroke-opacity:1"
         d="m 7.0267093,245.62045 c -0.019789,0.0179 27.1000097,3.0753 167.9722307,5.48333 l 133.24941,0.88278 148.18654,-4.36594 c 0.49699,3.27929 1.06756,6.52679 2.22729,9.51973 0.62612,0.078 1.34944,0.10739 2.84747,-0.25127 0.89678,-1.5941 1.33018,-4.59955 1.61758,-8.04966 1.8986,-3.70338 11.12651,-2.54066 17.30963,-3.39945 l 14.68329,-0.18396 c 4.73769,-0.14814 5.38873,-4.4007 6.29673,-8.39518 -70.00055,-3.99319 -140.85448,-4.83761 -211.754,-5.51383 l -0.62543,-1.54863 c -22.93221,1.15932 -49.37321,0.7751 -72.35226,-0.26482 -17.33728,-3.90602 -14.46146,-2.9047 -18.54394,-2.60449 v 0 c -52.11016,0.72127 -104.135289,1.73906 -155.35493,5.56578 l -25.944346,2.08825 c -3.391357,0.51376 -5.914137,1.41707 -7.6527434,2.67208 -3.3927342,2.85259 -2.8079094,5.60966 -2.1625213,8.36528"
         id="path14"
         sodipodi:nodetypes="ccccccccccccccccccc" /><g
         id="g18"
         transform="matrix(1.0000016,0,0,0.89122851,-4.2160608e-4,24.991798)"
         style="stroke-width:0.529633;stroke-dasharray:none"><path
           style="fill:none;stroke:#999999;stroke-width:0.529633;stroke-dasharray:none;stroke-opacity:1"
           d="m 29.814147,233.53896 156.641383,1.842 65.7909,-4.80573"
           id="path15"
           sodipodi:nodetypes="ccc" /><path
           style="fill:none;stroke:#999999;stroke-width:0.529633;stroke-dasharray:none;stroke-opacity:1"
           d="m 276.80339,230.02929 c 23.06754,6.79342 23.06754,6.79342 23.06754,6.79342 l 162.24215,-1.88913"
           id="path16" /></g><path
         style="fill:none;stroke:#a2b8cb;stroke-width:2.3;stroke-dasharray:none;stroke-opacity:1"
         d="m 198.69714,225.15782 c 5.99864,0.65396 12.93455,2.24289 18.22834,3.04641 6.18906,0.8733 21.78302,1.41243 33.99937,1.77028 l 25.87853,0.0548 13.26945,-0.35304"
         id="path17"
         sodipodi:nodetypes="ccccc" /><path
         style="fill:#a2b8cb;fill-opacity:1;stroke:none;stroke-width:1.3;stroke-dasharray:none;stroke-opacity:1"
         d="m 456.43487,247.62062 c 0.35164,3.05323 1.09972,6.22821 2.22729,9.51973 l 2.84747,-0.25127 c 1.00539,-2.3384 1.44873,-5.09252 1.61759,-8.04966 l 0.71918,-0.91938 -7.41153,-0.29942"
         id="path18"
         sodipodi:nodetypes="cccccc" /></g><g
       id="g11"><path
         style="fill:url(#linearGradient6);stroke:#305775;stroke-width:1.10934;stroke-dasharray:none;stroke-opacity:1"
         d="m 502.05406,172.17106 c -66.99947,4.32234 -268.30615,23.03587 -277.06897,17.2835 -97.85283,-4.38287 -147.5268,-5.18187 -218.55714,-16.1603 66.17237,-12.57709 120.77377,-13.03807 219.88326,-17.62456 46.48131,-2.72203 220.18766,12.15669 275.74285,16.50136"
         id="path12"
         sodipodi:nodetypes="ccccc" /><path
         style="fill:url(#linearGradient3);fill-opacity:1;stroke:#a2b8cb;stroke-width:2;stroke-dasharray:none;stroke-opacity:1"
         d="m 309.05905,173.07426 c -2.6576,-3.36039 -4.16904,-6.63051 -11.1383,-10.33041 -12.32953,-5.54759 -25.30352,-7.77389 -38.5121,-8.79128 -9.56266,-0.2328 -19.18366,-0.56067 -28.30191,-0.0691 -13.62873,1.03987 -20.78909,35.39765 1.12876,37.98086 0,0 10.67975,0.55729 31.90959,-0.69301 12.53001,-0.73795 24.3947,-3.03622 34.4236,-8.12613 3.81107,-2.26554 7.30194,-5.60911 10.49036,-9.9709 z"
         id="path13"
         sodipodi:nodetypes="cccccscc" /><circle
         style="fill:#a2b8cb;fill-opacity:1;stroke:none;stroke-width:2;stroke-dasharray:none;stroke-opacity:1"
         id="path10"
         cx="-47.82317"
         cy="172.94078"
         r="3.3981693"
         transform="scale(-1,1)" /></g></g></svg>
